<svg width="52" height="42" viewBox="0 0 52 42" fill="none" xmlns="http://www.w3.org/2000/svg">
<path d="M50.6904 11.1521C48.404 18.2855 43.7635 24.7963 37.2545 30.0036C30.7454 35.2108 22.6069 38.9232 13.6902 40.7523C6.82915 42.1495 1 37.4298 1 31.7641V29.2004C1 27.7853 2.43886 26.6496 4.19818 26.5086C7.11563 26.2765 9.97948 25.7253 12.7096 24.8704L17.5806 28.7671C25.5115 25.7256 31.907 20.6092 35.7089 14.2644L30.838 10.3677C31.9078 8.18371 32.5978 5.89263 32.8889 3.55855C33.0619 2.14853 34.4816 1 36.2505 1H39.4551C46.5372 1 52.4369 5.66332 50.6904 11.1521Z" stroke="#4270ED" stroke-width="2" stroke-linecap="round" stroke-linejoin="round"/>
</svg>
