<svg width="24" height="24" viewBox="0 0 24 24" fill="none" xmlns="http://www.w3.org/2000/svg">
<circle cx="12" cy="12" r="12" fill="#D93D69"/>
<path d="M12.5 14.684C12.2647 14.684 12.0588 14.6206 11.8824 14.4938C11.7059 14.3669 11.6059 14.2084 11.5824 14.0181C11.5471 13.6738 11.5118 13.2797 11.4765 12.8358C11.4529 12.3918 11.4235 11.9388 11.3882 11.4768C11.3529 11.0057 11.3235 10.5572 11.3 10.1314C11.2765 9.70555 11.2588 9.32956 11.2471 9.0034C11.2353 8.67724 11.2294 8.43715 11.2294 8.28313V6.93771C11.2294 6.67497 11.3471 6.453 11.5824 6.2718C11.8294 6.0906 12.1353 6 12.5 6C12.8765 6 13.1824 6.0906 13.4176 6.2718C13.6647 6.453 13.7882 6.67497 13.7882 6.93771V8.28313C13.7882 8.43715 13.7765 8.67724 13.7529 9.0034C13.7412 9.32956 13.7235 9.70555 13.7 10.1314C13.6765 10.5572 13.6471 11.0057 13.6118 11.4768C13.5882 11.9388 13.5588 12.3918 13.5235 12.8358C13.4882 13.2797 13.4529 13.6738 13.4176 14.0181C13.4059 14.2084 13.3118 14.3669 13.1353 14.4938C12.9588 14.6206 12.7471 14.684 12.5 14.684ZM12.5 18C12.0882 18 11.7353 17.8868 11.4412 17.6603C11.1471 17.4338 11 17.1619 11 16.8448C11 16.5277 11.1471 16.2559 11.4412 16.0294C11.7353 15.8029 12.0882 15.6897 12.5 15.6897C12.9118 15.6897 13.2647 15.8029 13.5588 16.0294C13.8529 16.2559 14 16.5277 14 16.8448C14 17.1619 13.8529 17.4338 13.5588 17.6603C13.2647 17.8868 12.9118 18 12.5 18Z" fill="white"/>
</svg>
