<svg width="95" height="100" viewBox="0 0 95 100" fill="none" xmlns="http://www.w3.org/2000/svg">
<path d="M47.3429 20.908L49.6899 17.495L61.7131 0H49.6899H42.614H32.9728L37.7934 7.01432L24.526 26.3166H12.1947L18.3612 35.2898L27.9107 49.1852L43.6267 26.3166L47.3429 20.908Z" fill="#F2A03D"/>
<path d="M63.1389 26.3164H51.0608L57.1007 35.1047L49.6899 45.8852L37.6668 63.3802L47.2163 77.2756L49.6899 73.676L66.6502 49.0001L82.2397 26.3164H63.1389Z" fill="#6999C9"/>
<path d="M57.6754 87.2114H55.5599L56.6177 89.3735L55.3184 92.027L53.2113 96.3329L54.8853 99.7526L55.3184 98.8664L58.2917 92.7932L61.0235 87.2114H57.6754Z" fill="#6999C9"/>
<path d="M15.2429 93.3314C15.0347 93.1232 14.3501 92.7134 14.1069 92.5868C13.8637 92.4602 13.5972 92.3952 13.3074 92.3952C13.0875 92.3952 12.8993 92.4652 12.7427 92.6035C12.5861 92.7434 12.5078 92.9333 12.5078 93.1781C12.5078 93.423 12.5911 93.5812 12.761 93.6912C12.9293 93.8011 13.2458 93.926 13.7088 94.0643C13.9753 94.1459 14.2418 94.2558 14.5084 94.3941C14.7749 94.534 15.0131 94.7139 15.2213 94.9338C15.4295 95.1537 15.6011 95.4185 15.7343 95.725C15.8676 96.0332 15.9342 96.3946 15.9342 96.8127C15.9342 97.3691 15.8359 97.8455 15.6394 98.2386C15.4428 98.6333 15.193 98.9515 14.8915 99.1947C14.59 99.4379 14.2502 99.6178 13.8737 99.7344C13.7705 99.766 13.3657 99.8909 12.786 99.9076C12.5378 99.9159 11.8299 99.9309 11.0903 99.6294C10.7488 99.4912 10.5023 99.3263 10.4474 99.2896C10.2741 99.1714 10.1359 99.0548 10.0359 98.9615V96.7927C10.2308 97.0176 10.6006 97.3774 11.1703 97.6072C11.8266 97.8721 12.3762 97.8171 12.6628 97.7855C12.9876 97.7488 13.1475 97.6789 13.2624 97.5589C13.4073 97.409 13.479 97.2108 13.479 96.9676C13.479 96.6778 13.3624 96.4662 13.1308 96.333C12.8993 96.1997 12.5511 96.0581 12.0881 95.9066C11.8449 95.8249 11.6017 95.7233 11.3568 95.6017C11.1136 95.4801 10.8954 95.3152 10.7039 95.1054C10.5123 94.8971 10.3557 94.6439 10.2341 94.3491C10.1125 94.0526 10.0509 93.6912 10.0509 93.2614C10.0509 92.7517 10.1442 92.307 10.3291 91.9305C10.514 91.5541 10.7555 91.2409 11.0503 90.991C11.3452 90.7412 11.6766 90.5563 12.0414 90.4347C12.4062 90.3131 12.7744 90.2515 13.1458 90.2515C14.1036 90.2515 14.9764 90.6179 15.2496 90.7445" fill="white"/>
<path d="M25.8485 95.7701C25.8485 96.025 25.8802 96.2665 25.9435 96.4914C26.0068 96.7179 26.0917 96.9145 26.1967 97.0827C26.2317 97.1377 26.3616 97.3209 26.5798 97.4825C27.1028 97.8739 27.7225 97.8323 27.9024 97.8173C28.009 97.809 28.4504 97.764 28.9168 97.4658C29.4898 97.101 29.743 96.583 29.8363 96.3598V98.7817C29.5897 99.0599 29.16 99.4647 28.517 99.7312C27.1228 100.311 25.8236 99.7912 25.5304 99.6646C25.5154 99.6579 25.5021 99.6512 25.4938 99.6479C25.0357 99.4397 24.6359 99.1282 24.2928 98.7168C23.9513 98.3054 23.6848 97.7973 23.4932 97.1943C23.3017 96.5913 23.2067 95.8951 23.2067 95.1072C23.2067 94.3659 23.2967 93.6897 23.4766 93.08C23.6565 92.472 23.9113 91.9557 24.2411 91.5326C24.5709 91.1095 24.9624 90.7813 25.4155 90.5498C25.8685 90.3183 26.3666 90.2017 26.9113 90.2017C27.5376 90.2017 28.0706 90.3233 28.512 90.5665C28.9534 90.8096 29.3149 91.1428 29.5997 91.5675C29.8829 91.9906 30.0895 92.4953 30.2177 93.08C30.346 93.6663 30.4093 94.306 30.4093 95.0022V95.7668H25.8519L25.8485 95.7701ZM27.9007 93.9961C27.9007 93.5098 27.8258 93.1033 27.6742 92.7785C27.5243 92.4537 27.2744 92.2921 26.9263 92.2921C26.7414 92.2921 26.5815 92.3471 26.4482 92.457C26.3149 92.567 26.2017 92.7069 26.1084 92.8751C26.0151 93.0434 25.9452 93.2283 25.9002 93.4315C25.8535 93.6347 25.8302 93.8229 25.8302 93.9961H27.9007Z" fill="white"/>
<path d="M61.7597 99.5263V90.4282H64.5081V99.5263H61.7597Z" fill="white"/>
<path d="M70.8745 92.987C70.6663 92.7788 70.4397 92.6106 70.1966 92.4823C69.9534 92.354 69.6868 92.2907 69.397 92.2907C69.1771 92.2907 68.9889 92.3607 68.8323 92.499C68.6758 92.6389 68.5975 92.8288 68.5975 93.0736C68.5975 93.3185 68.6807 93.4767 68.8507 93.5867C69.0189 93.6966 69.3354 93.8215 69.7984 93.9598C70.065 94.0414 70.3315 94.1513 70.598 94.2896C70.8645 94.4295 71.1027 94.6094 71.3109 94.8293C71.5191 95.0492 71.6907 95.314 71.824 95.6205C71.9572 95.9287 72.0238 96.2901 72.0238 96.7082C72.0238 97.2646 71.9256 97.741 71.729 98.1341C71.5325 98.5288 71.2826 98.847 70.9811 99.0902C70.6796 99.3334 70.3398 99.5133 69.9633 99.6299C69.5869 99.7465 69.2238 99.8031 68.8756 99.8031C68.2726 99.8031 67.6896 99.6932 67.1266 99.4733C66.5636 99.2534 66.0806 98.9453 65.6741 98.5505L67.0317 96.8115C67.2749 97.0663 67.5397 97.2762 67.8229 97.4378C68.1077 97.601 68.4176 97.681 68.754 97.681C69.0089 97.681 69.2088 97.606 69.3537 97.4545C69.4986 97.3045 69.5702 97.1063 69.5702 96.8631C69.5702 96.5733 69.4536 96.3617 69.2221 96.2285C68.9906 96.0952 68.6424 95.9536 68.1794 95.8021C67.9362 95.7204 67.693 95.6188 67.4481 95.4972C67.2049 95.3756 66.9867 95.2107 66.7952 95.0009C66.6036 94.7926 66.447 94.5395 66.3254 94.2446C66.2038 93.9481 66.1422 93.5867 66.1422 93.1569C66.1422 92.6472 66.2355 92.2025 66.4204 91.826C66.6053 91.4496 66.8468 91.1364 67.1416 90.8865C67.4365 90.6367 67.7679 90.4518 68.1327 90.3302C68.4975 90.2086 68.8656 90.147 69.2371 90.147C69.7934 90.147 70.3265 90.2453 70.8378 90.4418C71.3476 90.64 71.8006 90.9115 72.1937 91.2597L70.8712 92.982L70.8745 92.987Z" fill="white"/>
<path d="M73.5197 99.5263V90.4282H76.2681V99.5263H73.5197Z" fill="white"/>
<path d="M85.3829 94.9873C85.3829 95.6952 85.2963 96.3465 85.1214 96.9445C84.9481 97.5425 84.7016 98.0555 84.3818 98.4836C84.062 98.9134 83.6689 99.2482 83.1991 99.4931C82.7294 99.7362 82.198 99.8578 81.6084 99.8578C81.0187 99.8578 80.489 99.7362 80.0259 99.4931C79.5629 99.2499 79.1648 98.9134 78.8349 98.4836C78.5051 98.0539 78.2519 97.5408 78.0787 96.9445C77.9055 96.3465 77.8172 95.6952 77.8172 94.9873C77.8172 94.2794 77.9038 93.6248 78.0787 93.0218C78.2519 92.4188 78.5018 91.9024 78.8266 91.4743C79.1514 91.0446 79.5479 90.7081 80.0176 90.4649C80.4873 90.2217 81.0187 90.1001 81.61 90.1001C82.2014 90.1001 82.7327 90.2217 83.2008 90.4649C83.6689 90.7081 84.0636 91.0446 84.3834 91.4743C84.7016 91.9041 84.9481 92.4188 85.123 93.0218C85.2963 93.6248 85.3845 94.2794 85.3845 94.9873H85.3829ZM82.7727 94.969C82.7727 94.6208 82.7494 94.2994 82.7027 94.0029C82.6561 93.7064 82.5861 93.4465 82.4945 93.22C82.4012 92.9934 82.283 92.8169 82.1381 92.6903C81.9931 92.562 81.8166 92.4987 81.6084 92.4987C81.4001 92.4987 81.2402 92.562 81.0953 92.6903C80.9504 92.8185 80.8321 92.9951 80.7389 93.22C80.6456 93.4465 80.5756 93.7064 80.5306 94.0029C80.484 94.2977 80.4607 94.6208 80.4607 94.969C80.4607 95.3171 80.484 95.6386 80.5306 95.9351C80.5773 96.2316 80.6472 96.4914 80.7389 96.718C80.8321 96.9445 80.9504 97.1211 81.0953 97.2493C81.2402 97.3776 81.4118 97.4409 81.6084 97.4409C81.8166 97.4409 81.9931 97.3776 82.1381 97.2493C82.283 97.1228 82.4012 96.9445 82.4945 96.718C82.5878 96.4914 82.6578 96.2316 82.7027 95.9351C82.7494 95.6403 82.7727 95.3171 82.7727 94.969Z" fill="white"/>
<path d="M48.7472 87.2114L49.8282 89.4202L51.5023 92.8399L54.2557 87.2114H50.9093H48.7472Z" fill="#F2A03D"/>
<path d="M21.4078 97.599C20.9397 97.7223 20.5449 97.559 20.4117 97.5007C19.9236 97.2909 19.6788 96.9044 19.5355 96.6712C18.9808 95.7734 18.9792 94.5891 19.4139 93.6846C19.5605 93.3781 19.8104 92.86 20.3717 92.6402C20.7515 92.4919 21.0913 92.5502 21.2012 92.5719C21.9675 92.7151 22.3589 93.3897 22.4222 93.5047V91.1627L22.4089 91.1677L22.4139 91.1594C22.2057 90.9278 21.9158 90.7179 21.5444 90.5331C21.1729 90.3482 20.7315 90.2549 20.2218 90.2549C19.6421 90.2549 19.1291 90.3748 18.6827 90.6113C18.2363 90.8495 17.8631 91.1827 17.56 91.6124C17.2585 92.0422 17.0269 92.5486 16.8637 93.1349C16.7005 93.7212 16.6205 94.3675 16.6205 95.0738C16.6205 95.7801 16.6988 96.4313 16.8554 97.0227C17.012 97.614 17.2402 98.1237 17.5433 98.5535C17.8448 98.9832 18.2163 99.3164 18.656 99.5546C19.0974 99.7927 19.6071 99.911 20.1868 99.911C20.6849 99.911 21.1263 99.8244 21.5094 99.6495C21.8892 99.4779 22.199 99.2414 22.4422 98.9432L22.4489 98.9466V96.3381C22.4189 96.4197 22.1357 97.4074 21.4078 97.599Z" fill="white"/>
<path d="M61.6198 87.2114L62.2144 88.1959L63.1339 89.72L64.6497 87.2114H62.8091H61.6198Z" fill="white"/>
<path d="M45.9188 97.7308C45.4324 97.7091 45.2425 97.6008 45.1775 97.5592C44.6262 97.2144 44.5845 96.4532 44.5795 96.3082V92.677H46.1453L47.6594 90.5549H44.5795V88.3628H41.936V90.5549H40.8567V92.677H41.9527V96.9212C41.9527 97.9073 42.1609 98.6469 42.579 99.1383C42.9971 99.6313 43.6634 99.8779 44.5795 99.8779C44.9993 99.8779 45.4141 99.7913 45.4141 99.7913C45.6789 99.7313 45.8954 99.648 46.0587 99.5747L47.5978 97.4176C46.8699 97.7191 46.2719 97.7458 45.9204 97.7291L45.9188 97.7308Z" fill="white"/>
<path d="M73.3781 87.2114L73.9727 88.1959L74.8939 89.72L76.408 87.2114H74.5674H73.3781Z" fill="white"/>
<path d="M3.60128 95.2302L3.95108 93.4729L4.64401 89.9949H4.71397L5.70507 95.2302L6.33638 98.6482L6.55792 99.631H9.46292L6.48796 87.3164H2.99162L0 99.631H2.78341L3.60128 95.2302Z" fill="white"/>
<path d="M34.7901 92.8667L36.5591 93.533L36.5508 95.7584L36.5741 99.8577H39.2942V89.7202" fill="white"/>
<path d="M34.3054 90.8914L34.2938 90.2451H31.6453V99.8579H34.3754V94.3911L34.3204 91.606" fill="white"/>
<path d="M89.9303 92.8667L91.6993 93.533L91.691 95.7584L91.7143 99.8577H94.4344V89.7202" fill="white"/>
<path d="M89.4472 90.8914L89.4339 90.2451H86.7854V99.8579H89.5172V94.3911L89.4605 91.606" fill="white"/>
</svg>
