<svg width="24" height="24" viewBox="0 0 24 24" fill="none" xmlns="http://www.w3.org/2000/svg">
<circle cx="12" cy="12" r="12" fill="white"/>
<path d="M11.7095 14.6626C11.5465 14.6626 11.3998 14.6033 11.2693 14.4847C11.1471 14.3662 11.0778 14.2222 11.0615 14.0527L11.0003 12.7822C10.984 12.3586 11.0452 12.0156 11.1837 11.753C11.3223 11.4904 11.6361 11.2659 12.1252 11.0796C12.5084 10.9356 12.7896 10.7407 12.9689 10.4951C13.1564 10.2495 13.2501 9.9318 13.2501 9.54216C13.2501 9.04239 13.1116 8.64428 12.8344 8.34781C12.5573 8.05133 12.1823 7.9031 11.7095 7.9031C11.3101 7.9031 10.9637 8.02592 10.6702 8.27157C10.3849 8.50875 10.1974 8.82216 10.1077 9.21181C10.0507 9.44051 9.92026 9.61416 9.71647 9.73275C9.51268 9.84286 9.29667 9.86828 9.06843 9.80898C8.84834 9.74122 8.68531 9.60992 8.57934 9.4151C8.47337 9.21181 8.44484 8.99157 8.49375 8.75439C8.59972 8.29698 8.79943 7.89039 9.09288 7.53463C9.39449 7.17039 9.76538 6.88239 10.2056 6.67063C10.6539 6.45886 11.1552 6.35298 11.7095 6.35298C12.3453 6.35298 12.9078 6.48004 13.3969 6.73416C13.886 6.98828 14.2691 7.35675 14.5462 7.83957C14.8315 8.31392 14.9742 8.88145 14.9742 9.54216C14.9742 10.2283 14.7785 10.7958 14.3873 11.2447C14.0042 11.6937 13.5069 12.0283 12.8956 12.2485C12.6918 12.3247 12.5573 12.4095 12.4921 12.5026C12.4268 12.5873 12.3902 12.7398 12.382 12.96L12.3453 14.0527C12.3372 14.2222 12.2679 14.3662 12.1375 14.4847C12.0152 14.6033 11.8725 14.6626 11.7095 14.6626ZM11.7095 17.5596C11.4242 17.5596 11.1797 17.4537 10.9759 17.2419C10.7721 17.0302 10.6702 16.776 10.6702 16.4796C10.6702 16.1831 10.7721 15.929 10.9759 15.7172C11.1797 15.5055 11.4242 15.3996 11.7095 15.3996C11.9948 15.3996 12.2394 15.5055 12.4431 15.7172C12.6469 15.929 12.7488 16.1831 12.7488 16.4796C12.7488 16.776 12.6469 17.0302 12.4431 17.2419C12.2394 17.4537 11.9948 17.5596 11.7095 17.5596Z" fill="#4270ED"/>
</svg>
