<svg width="24" height="25" viewBox="0 0 24 25" fill="none" xmlns="http://www.w3.org/2000/svg">
<circle cx="12" cy="12.5" r="12" fill="#4270ED"/>
<path d="M11.7095 15.1626C11.5465 15.1626 11.3998 15.1033 11.2693 14.9847C11.1471 14.8661 11.0778 14.7221 11.0615 14.5527L11.0003 13.2821C10.984 12.8586 11.0452 12.5156 11.1837 12.253C11.3223 11.9904 11.6361 11.7659 12.1252 11.5796C12.5084 11.4356 12.7896 11.2407 12.9689 10.9951C13.1564 10.7494 13.2501 10.4318 13.2501 10.0421C13.2501 9.54238 13.1116 9.14426 12.8344 8.84779C12.5573 8.55132 12.1823 8.40308 11.7095 8.40308C11.3101 8.40308 10.9637 8.52591 10.6702 8.77155C10.3849 9.00873 10.1974 9.32214 10.1077 9.71179C10.0507 9.9405 9.92026 10.1141 9.71647 10.2327C9.51268 10.3428 9.29667 10.3683 9.06843 10.309C8.84834 10.2412 8.68531 10.1099 8.57934 9.91508C8.47337 9.71179 8.44484 9.49155 8.49375 9.25438C8.59972 8.79697 8.79943 8.39038 9.09288 8.03461C9.39449 7.67038 9.76538 7.38238 10.2056 7.17061C10.6539 6.95885 11.1552 6.85297 11.7095 6.85297C12.3453 6.85297 12.9078 6.98003 13.3969 7.23414C13.886 7.48826 14.2691 7.85673 14.5462 8.33955C14.8315 8.81391 14.9742 9.38144 14.9742 10.0421C14.9742 10.7283 14.7785 11.2958 14.3873 11.7447C14.0042 12.1937 13.5069 12.5283 12.8956 12.7485C12.6918 12.8247 12.5573 12.9094 12.4921 13.0026C12.4268 13.0873 12.3902 13.2398 12.382 13.46L12.3453 14.5527C12.3372 14.7221 12.2679 14.8661 12.1375 14.9847C12.0152 15.1033 11.8725 15.1626 11.7095 15.1626ZM11.7095 18.0596C11.4242 18.0596 11.1797 17.9537 10.9759 17.7419C10.7721 17.5301 10.6702 17.276 10.6702 16.9796C10.6702 16.6831 10.7721 16.429 10.9759 16.2172C11.1797 16.0054 11.4242 15.8996 11.7095 15.8996C11.9948 15.8996 12.2394 16.0054 12.4431 16.2172C12.6469 16.429 12.7488 16.6831 12.7488 16.9796C12.7488 17.276 12.6469 17.5301 12.4431 17.7419C12.2394 17.9537 11.9948 18.0596 11.7095 18.0596Z" fill="white"/>
</svg>
