<svg width="80" height="80" viewBox="0 0 80 80" fill="none" xmlns="http://www.w3.org/2000/svg">
<g id="Group 1098">
<g id="Group 1092">
<path id="Vector 37 (Stroke)" fill-rule="evenodd" clip-rule="evenodd" d="M33.1715 52.1861C33.3705 52.0311 33.6629 52.0601 33.8246 52.2509L39.5 58.9486L45.1754 52.2509C45.3371 52.0601 45.6295 52.0311 45.8285 52.1861C46.0275 52.3412 46.0577 52.6216 45.896 52.8124L39.8603 59.9353C39.7722 60.0394 39.6398 60.0998 39.5 60.0998C39.3602 60.0998 39.2278 60.0394 39.1397 59.9353L33.104 52.8124C32.9423 52.6216 32.9725 52.3412 33.1715 52.1861Z" fill="#393939"/>
<path id="Line 3 (Stroke)" fill-rule="evenodd" clip-rule="evenodd" d="M39.5 60.0998C39.2239 60.0998 39 59.881 39 59.6111L39 20.5219C39 20.252 39.2239 20.0333 39.5 20.0333C39.7761 20.0333 40 20.252 40 20.5219L40 59.6111C40 59.881 39.7761 60.0998 39.5 60.0998Z" fill="#393939"/>
</g>
<g id="Group 1096">
<path id="Vector" d="M44.9723 4.78438C44.7381 4.62891 44.5656 4.4375 44.4549 4.21086C44.3445 3.9849 44.3086 3.73821 44.348 3.47218L45.024 3.58481C45.0095 3.8163 45.0719 4.02429 45.211 4.2074C45.35 4.39051 45.5776 4.50868 45.8936 4.56119C46.1957 4.61094 46.4461 4.57501 46.6455 4.4527C46.8449 4.3304 46.9639 4.15074 47.0032 3.91304C47.0339 3.72716 47.008 3.56754 46.9249 3.43418C46.8421 3.30081 46.729 3.19095 46.5855 3.10526C46.4423 3.01889 46.2464 2.91939 45.9977 2.80675C45.6911 2.66994 45.4479 2.54348 45.2692 2.4274C45.0902 2.312 44.9471 2.15307 44.8395 1.9513C44.7322 1.74884 44.7036 1.49732 44.7536 1.19466C44.7974 0.929318 44.9036 0.705436 45.0723 0.523013C45.241 0.34059 45.4565 0.213447 45.7187 0.142275C45.9812 0.071102 46.2702 0.0621191 46.5862 0.114635C47.0415 0.189953 47.3954 0.366157 47.6482 0.641864C47.9007 0.918262 48.0145 1.24787 47.9893 1.63137L47.2926 1.51528C47.2998 1.32526 47.2295 1.14491 47.0811 0.974924C46.9328 0.804248 46.7169 0.695762 46.4334 0.648083C46.1685 0.604551 45.9412 0.637027 45.7511 0.746895C45.5614 0.856073 45.4458 1.03435 45.4051 1.28103C45.3758 1.45793 45.402 1.61064 45.4834 1.73847C45.5648 1.867 45.6738 1.97203 45.8104 2.05495C45.9474 2.13718 46.1419 2.23806 46.3944 2.35622C46.7003 2.49788 46.9439 2.62778 47.1246 2.74595C47.3057 2.8648 47.4509 3.02511 47.5606 3.22757C47.6703 3.43003 47.6999 3.68432 47.6489 3.99181C47.6099 4.22882 47.5102 4.44165 47.3502 4.63029C47.1898 4.81893 46.9759 4.95851 46.7083 5.04765C46.4403 5.13679 46.1391 5.15406 45.8049 5.09879C45.4841 5.04558 45.2068 4.94055 44.9723 4.78438Z" fill="#393939"/>
<path id="Vector_2" d="M49.4061 1.89266C49.7255 1.58862 50.096 1.38754 50.5175 1.29011C50.939 1.19199 51.368 1.20995 51.8047 1.344C52.3183 1.50155 52.7284 1.76275 53.0354 2.12828C53.3424 2.49382 53.5142 2.93122 53.5507 3.44049L52.8143 3.21453C52.7705 2.89045 52.6494 2.61405 52.4508 2.38533C52.2521 2.15731 51.9817 1.99009 51.6395 1.88505C51.3108 1.78486 50.9921 1.77104 50.6844 1.84429C50.376 1.91753 50.1049 2.07231 49.87 2.30863C49.6355 2.54496 49.4603 2.85314 49.3444 3.2318C49.2302 3.60632 49.2043 3.95735 49.2668 4.28488C49.3292 4.61241 49.4675 4.89227 49.6821 5.12582C49.8963 5.35938 50.1681 5.5266 50.4968 5.62679C50.8389 5.73183 51.1559 5.74634 51.4474 5.67033C51.7388 5.59501 51.9934 5.4347 52.211 5.19078L52.9471 5.41604C52.6339 5.81336 52.2479 6.07594 51.7902 6.20447C51.3325 6.33368 50.8469 6.31917 50.3333 6.16163C49.8966 6.02757 49.5306 5.80369 49.235 5.4886C48.9398 5.1735 48.7442 4.80175 48.649 4.37264C48.5531 3.94353 48.5759 3.49922 48.7163 3.03902C48.8567 2.5795 49.0867 2.19738 49.4061 1.89266Z" fill="#393939"/>
<path id="Vector_3" d="M55.6188 8.20833L55.3956 5.88521L54.6896 5.55975L53.8476 7.39158L53.2637 7.12209L55.3232 2.64236L56.7667 3.30779C57.1047 3.46396 57.3638 3.65329 57.5435 3.87648C57.7235 4.09967 57.826 4.33669 57.8508 4.58683C57.8757 4.83766 57.8301 5.08918 57.7139 5.34208C57.5721 5.65027 57.3583 5.88175 57.0723 6.03515C56.7864 6.18924 56.4484 6.22241 56.0579 6.13604L56.318 8.53034L55.6188 8.20833ZM54.9055 5.09056L55.7654 5.48719C56.0817 5.63299 56.3552 5.66409 56.5853 5.58048C56.8154 5.49756 56.9906 5.32481 57.111 5.06361C57.2331 4.79827 57.2493 4.55642 57.1603 4.33876C57.0709 4.12109 56.8661 3.93798 56.5453 3.79011L55.6854 3.39348L54.9055 5.09056Z" fill="#393939"/>
<path id="Vector_4" d="M57.9809 9.16822C57.7777 8.78472 57.687 8.37219 57.708 7.92996C57.7294 7.48772 57.8688 7.06345 58.1264 6.65714C58.3841 6.25153 58.7083 5.94542 59.0991 5.73812C59.4899 5.53151 59.9018 5.43892 60.3346 5.46034C60.7675 5.48176 61.1766 5.61512 61.5622 5.86043C61.9517 6.10849 62.2479 6.42428 62.4508 6.80778C62.6536 7.19197 62.7443 7.60312 62.7226 8.0419C62.7005 8.48068 62.5594 8.90495 62.2993 9.3154C62.0389 9.72516 61.715 10.0333 61.3277 10.2393C60.94 10.4452 60.5299 10.5378 60.097 10.5164C59.6641 10.4949 59.253 10.3602 58.8635 10.1121C58.4779 9.86613 58.1837 9.55172 57.9809 9.16822ZM60.0756 9.93661C60.394 9.94905 60.6996 9.87235 60.9917 9.70651C61.2842 9.54067 61.535 9.2926 61.745 8.9623C61.9572 8.62786 62.0755 8.29342 62.1003 7.96036C62.1251 7.62661 62.0651 7.31843 61.921 7.0365C61.7761 6.75457 61.5567 6.51964 61.2628 6.33238C60.9686 6.14512 60.6634 6.04561 60.3471 6.03387C60.0308 6.02281 59.7269 6.09882 59.4358 6.26328C59.1447 6.42704 58.8932 6.67649 58.6807 7.01024C58.471 7.34123 58.3531 7.6736 58.3272 8.00942C58.301 8.34525 58.3613 8.65481 58.5079 8.93812C58.6545 9.22143 58.8729 9.45568 59.1629 9.64017C59.453 9.82467 59.7572 9.92348 60.0756 9.93661Z" fill="#393939"/>
<path id="Vector_5" d="M62.3358 11.892L63.6717 12.9831L63.3416 13.3887L61.5073 11.8907L64.6185 8.06876L65.117 8.47506L62.3358 11.892Z" fill="#393939"/>
<path id="Vector_6" d="M64.6057 13.871L65.846 15.0699L65.4832 15.4465L63.7803 13.8006L67.1988 10.2516L67.6617 10.6987L64.6057 13.871Z" fill="#393939"/>
<path id="Vector_7" d="M72.555 16.787C72.6302 17.2231 72.5815 17.6363 72.4091 18.0274C72.2366 18.4185 71.9486 18.7654 71.5454 19.068C71.1418 19.37 70.729 19.5483 70.3075 19.6022C69.886 19.6554 69.4793 19.5835 69.0871 19.3852C68.6953 19.1869 68.3383 18.8725 68.0168 18.442L67.0986 17.212L71.0418 14.2587L71.9597 15.488C72.2815 15.9185 72.4798 16.3517 72.555 16.787ZM69.7173 18.9885C70.1871 19.0542 70.6651 18.9056 71.1518 18.5408C71.642 18.1739 71.9238 17.7517 71.9976 17.2756C72.0711 16.7995 71.9189 16.3082 71.5413 15.8017L71.008 15.0879L67.9082 17.4103L68.4411 18.1241C68.8219 18.6341 69.2472 18.9222 69.7173 18.9885Z" fill="#393939"/>
<path id="Vector_8" d="M70.6646 21.8527C70.6728 21.4188 70.7932 21.0139 71.026 20.6373C71.2589 20.2614 71.5862 19.958 72.0084 19.7286C72.4306 19.4992 72.8624 19.3886 73.3043 19.3976C73.7461 19.4073 74.1507 19.5261 74.5191 19.7556C74.8871 19.9843 75.1803 20.3001 75.3983 20.7022C75.6187 21.1085 75.7246 21.5286 75.7163 21.9626C75.7077 22.3965 75.5877 22.8001 75.3559 23.1732C75.1241 23.5464 74.795 23.849 74.3687 24.0812C73.9427 24.3127 73.5102 24.4246 73.0714 24.4163C72.633 24.408 72.2295 24.2892 71.8614 24.0605C71.4934 23.831 71.1992 23.5132 70.9788 23.1069C70.7608 22.7054 70.6559 22.2874 70.6646 21.8527ZM72.1236 23.5429C72.3957 23.7087 72.7 23.7903 73.0359 23.7875C73.3719 23.7847 73.7116 23.6894 74.0552 23.5028C74.4028 23.3135 74.6681 23.0792 74.8516 22.7994C75.0347 22.5202 75.1317 22.2217 75.142 21.9045C75.1524 21.5874 75.0744 21.2757 74.9082 20.9689C74.7416 20.6621 74.5229 20.4272 74.2518 20.2634C73.9807 20.0997 73.6782 20.0181 73.3443 20.0202C73.0104 20.0223 72.6696 20.1176 72.3219 20.307C71.9784 20.4935 71.7142 20.7278 71.5286 21.0083C71.3434 21.2889 71.2461 21.5888 71.2368 21.908C71.2275 22.2272 71.3051 22.5375 71.4693 22.8402C71.6331 23.1428 71.8514 23.3771 72.1236 23.5429Z" fill="#393939"/>
<path id="Vector_9" d="M79.1538 30.1668L74.0323 30.3893L73.8019 29.7059L77.1908 27.3503L73.0562 27.4933L72.8213 26.8182L77.0525 23.9319L77.2718 24.5822L73.6595 26.9385L77.9948 26.727L78.2252 27.4111L74.6446 29.8165L78.9323 29.5097L79.1538 30.1668Z" fill="#393939"/>
<path id="Vector_10" d="M75.1334 36.1128L75.0299 35.4778L78.4826 32.2888L74.6132 32.9218L74.5098 32.2861L79.376 31.4901L79.4798 32.1258L76.034 35.3133L79.8961 34.6818L79.9999 35.3175L75.1334 36.1128Z" fill="#393939"/>
<path id="Vector_11" d="M75.1153 44.6175C75.2688 44.3812 75.4578 44.2064 75.6827 44.0938C75.9076 43.9811 76.1529 43.9424 76.4188 43.9797L76.3136 44.6576C76.0818 44.6452 75.8752 44.7101 75.6938 44.8511C75.512 44.9921 75.3968 45.2215 75.3475 45.5379C75.3005 45.8413 75.3388 46.0921 75.463 46.2904C75.5872 46.4887 75.7679 46.6062 76.0052 46.6435C76.1911 46.6726 76.3505 46.6442 76.4826 46.5599C76.6151 46.4756 76.7234 46.3616 76.8079 46.2172C76.892 46.0728 76.9896 45.8751 77.0997 45.625C77.2335 45.3168 77.3573 45.0722 77.4712 44.8919C77.585 44.7115 77.7419 44.5664 77.9427 44.4565C78.1431 44.3474 78.3945 44.3163 78.697 44.3632C78.9623 44.4047 79.1868 44.5084 79.3707 44.6756C79.5542 44.8428 79.6832 45.0577 79.7566 45.3196C79.8304 45.5815 79.8425 45.871 79.7932 46.1882C79.7225 46.6449 79.5504 47.0015 79.2768 47.2571C79.0037 47.5128 78.6756 47.6303 78.2931 47.6088L78.4018 46.9096C78.5915 46.9151 78.7705 46.8425 78.9395 46.6926C79.1082 46.542 79.2144 46.325 79.2586 46.0403C79.2999 45.7749 79.2648 45.5476 79.1537 45.3583C79.0426 45.1689 78.8636 45.0549 78.617 45.0169C78.44 44.9893 78.2883 45.0169 78.161 45.0998C78.0337 45.1821 77.9296 45.2926 77.8485 45.4301C77.7674 45.5683 77.6691 45.7639 77.5536 46.0182C77.4149 46.3257 77.2877 46.571 77.1711 46.7534C77.0545 46.9358 76.8958 47.083 76.6951 47.1949C76.4943 47.3069 76.2401 47.3387 75.9331 47.291C75.6958 47.2537 75.4823 47.1562 75.2923 46.9973C75.1026 46.8391 74.9615 46.6263 74.8697 46.3588C74.7776 46.0914 74.758 45.7902 74.8101 45.4543C74.8601 45.133 74.9618 44.8539 75.1153 44.6175Z" fill="#393939"/>
<path id="Vector_12" d="M78.0478 49.0233C78.3548 49.3398 78.559 49.7088 78.6611 50.1303C78.7629 50.5511 78.7491 50.9809 78.6201 51.4204C78.4679 51.9359 78.2113 52.3491 77.8495 52.6607C77.488 52.9717 77.0531 53.1479 76.5446 53.19L76.7626 52.45C77.0858 52.403 77.3604 52.2786 77.5867 52.0775C77.8129 51.8764 77.9768 51.6035 78.0778 51.2601C78.1751 50.9298 78.1855 50.6105 78.1092 50.303C78.033 49.9949 77.8757 49.7247 77.6374 49.4918C77.399 49.2596 77.0903 49.0869 76.7109 48.975C76.3356 48.8637 75.9852 48.8416 75.6589 48.9072C75.3326 48.9736 75.0539 49.1145 74.8231 49.3322C74.5924 49.5492 74.4282 49.8228 74.3309 50.1531C74.2299 50.4965 74.2185 50.8144 74.2971 51.106C74.3761 51.3969 74.5382 51.6505 74.7842 51.8654L74.5665 52.6054C74.1667 52.2952 73.9005 51.9117 73.7673 51.4542C73.6345 50.9968 73.6438 50.5103 73.7959 49.9949C73.9249 49.5561 74.1454 49.1871 74.4568 48.8879C74.7683 48.5887 75.1377 48.3897 75.5647 48.2895C75.9921 48.1893 76.436 48.2073 76.8965 48.3434C77.3573 48.4795 77.7412 48.7062 78.0478 49.0233Z" fill="#393939"/>
<path id="Vector_13" d="M71.8047 55.3128L74.1215 55.0668L74.4395 54.3565L72.6025 53.5314L72.8656 52.9434L77.3583 54.9618L76.7078 56.4143C76.5556 56.7542 76.369 57.0154 76.1479 57.1978C75.9269 57.3803 75.6913 57.4853 75.4415 57.5129C75.1918 57.5406 74.9404 57.4971 74.6868 57.383C74.3775 57.2441 74.1446 57.032 73.9884 56.7473C73.8318 56.4626 73.7949 56.1247 73.8777 55.7322L71.4897 56.0169L71.8047 55.3128ZM74.91 54.5679L74.5227 55.433C74.3802 55.7516 74.3516 56.0252 74.4371 56.2553C74.5227 56.4847 74.6965 56.6589 74.9586 56.7763C75.2249 56.8959 75.4664 56.9104 75.683 56.8185C75.8993 56.7273 76.0797 56.52 76.2242 56.1973L76.6115 55.3322L74.91 54.5679Z" fill="#393939"/>
<path id="Vector_14" d="M70.8681 57.6905C71.2489 57.4839 71.66 57.3885 72.1019 57.4051C72.5434 57.4224 72.968 57.5578 73.376 57.8121C73.7837 58.0664 74.0928 58.3877 74.3028 58.7774C74.5132 59.1664 74.6098 59.5783 74.5926 60.0122C74.5757 60.4455 74.4463 60.8566 74.2049 61.2456C73.9614 61.6381 73.6489 61.9373 73.2681 62.1446C72.8869 62.3519 72.4772 62.4466 72.0391 62.4286C71.6007 62.4113 71.1754 62.2738 70.7636 62.0175C70.3517 61.7604 70.0413 61.4391 69.8316 61.0535C69.6222 60.6673 69.526 60.2575 69.5432 59.8236C69.5601 59.3896 69.6909 58.9764 69.9344 58.5839C70.1758 58.1956 70.4869 57.8978 70.8681 57.6905ZM70.1217 59.7966C70.112 60.1152 70.1917 60.4206 70.36 60.7115C70.5287 61.0031 70.7787 61.2519 71.1109 61.4585C71.4465 61.6678 71.7811 61.7832 72.1143 61.8053C72.4478 61.8268 72.7545 61.7632 73.0345 61.616C73.315 61.4681 73.5471 61.2463 73.7313 60.9499C73.9155 60.6535 74.0114 60.3467 74.02 60.0302C74.0283 59.713 73.9489 59.4097 73.7823 59.1194C73.6161 58.8292 73.3646 58.5798 73.0287 58.3704C72.6969 58.1638 72.3633 58.0491 72.0281 58.0263C71.6928 58.0035 71.3844 58.0664 71.103 58.2163C70.8215 58.3656 70.5901 58.5867 70.4083 58.879C70.2269 59.1713 70.131 59.4774 70.1217 59.7966Z" fill="#393939"/>
<path id="Vector_15" d="M68.1909 62.0797L67.1147 63.4285L66.7063 63.1017L68.1836 61.2498L72.0299 64.3289L71.6287 64.832L68.1909 62.0797Z" fill="#393939"/>
<path id="Vector_16" d="M66.236 64.3738L65.0511 65.628L64.6714 65.268L66.298 63.5467L69.8742 66.9367L69.4324 67.4038L66.236 64.3738Z" fill="#393939"/>
<path id="Vector_17" d="M63.4027 72.3631C62.9684 72.4426 62.5556 72.3984 62.163 72.2291C61.7709 72.0605 61.4218 71.7751 61.1162 71.3743C60.8103 70.9728 60.6288 70.561 60.5712 70.1395C60.5133 69.718 60.5816 69.3096 60.7758 68.915C60.9696 68.5205 61.28 68.1605 61.7067 67.8336L62.9253 66.9022L65.9124 70.8229L64.6938 71.7543C64.2671 72.0805 63.8366 72.2836 63.4027 72.3631ZM61.1779 69.5425C61.1162 70.0137 61.2697 70.4912 61.6384 70.9749C62.0099 71.4621 62.4338 71.7405 62.9098 71.8096C63.3861 71.8787 63.8749 71.7219 64.3768 71.3384L65.0842 70.7973L62.736 67.7148L62.0282 68.2558C61.5229 68.6421 61.2393 69.0705 61.1779 69.5425Z" fill="#393939"/>
<path id="Vector_18" d="M58.3297 70.5181C58.7633 70.5223 59.1689 70.639 59.5466 70.8691C59.9247 71.0979 60.2303 71.4233 60.4638 71.8434C60.6973 72.2643 60.8115 72.6954 60.8066 73.1384C60.8018 73.5806 60.6869 73.9876 60.4617 74.3587C60.2365 74.7297 59.9243 75.0262 59.5252 75.2487C59.1217 75.4732 58.7033 75.5838 58.2701 75.5797C57.8365 75.5755 57.4326 75.4587 57.0577 75.2307C56.6831 75.002 56.3778 74.6751 56.1422 74.2509C55.9063 73.8259 55.7904 73.394 55.7945 72.9546C55.7983 72.5151 55.9128 72.1102 56.1381 71.7391C56.3633 71.368 56.6775 71.0702 57.0808 70.8457C57.4802 70.6232 57.8965 70.514 58.3297 70.5181ZM56.6569 71.9968C56.4937 72.2712 56.4157 72.5766 56.422 72.9131C56.4282 73.2496 56.5261 73.5889 56.7162 73.9309C56.9086 74.2771 57.1453 74.5411 57.426 74.7214C57.7071 74.9025 58.0058 74.9965 58.3221 75.0041C58.6388 75.011 58.9492 74.9301 59.2538 74.7601C59.5584 74.5908 59.7912 74.369 59.9523 74.0961C60.113 73.8232 60.1909 73.5191 60.1858 73.1847C60.1806 72.8502 60.0819 72.5096 59.8895 72.1634C59.6994 71.8213 59.4638 71.5588 59.1817 71.3756C58.8995 71.1925 58.5991 71.0986 58.2804 71.0923C57.962 71.0861 57.6526 71.167 57.3519 71.3342C57.0514 71.5014 56.8197 71.7225 56.6569 71.9968Z" fill="#393939"/>
<path id="Vector_19" d="M50.1199 79.1017L49.8457 73.9738L50.5262 73.7368L52.9117 77.1068L52.7272 72.9677L53.3988 72.7252L56.323 76.9347L55.676 77.1607L53.2874 73.5661L53.5416 77.9063L52.8614 78.144L50.4238 74.5812L50.7735 78.873L50.1199 79.1017Z" fill="#393939"/>
<path id="Vector_20" d="M44.1506 75.134L44.7839 75.0235L48.0024 78.4494L47.3312 74.5805L47.9645 74.47L48.8088 79.336L48.1756 79.4465L44.9581 76.0275L45.6283 79.8894L44.9947 80L44.1506 75.134Z" fill="#393939"/>
<path id="Vector_21" d="M35.6472 75.1997C35.8845 75.351 36.0608 75.539 36.1756 75.7629C36.2905 75.9868 36.3312 76.2328 36.2971 76.4995L35.6189 76.4007C35.6289 76.1685 35.5627 75.9619 35.4199 75.7815C35.2771 75.6012 35.0474 75.4879 34.7304 75.4416C34.4276 75.3973 34.1778 75.4381 33.9809 75.5646C33.7839 75.691 33.6684 75.8727 33.6339 76.1111C33.6066 76.2977 33.636 76.4566 33.7215 76.5886C33.8071 76.7199 33.9223 76.8277 34.0671 76.9106C34.2123 76.9935 34.41 77.0896 34.6607 77.1974C34.9701 77.3287 35.2157 77.4496 35.3968 77.5622C35.5779 77.6742 35.7241 77.8303 35.8355 78.03C35.947 78.2297 35.9804 78.4813 35.9366 78.7846C35.8976 79.0506 35.7959 79.2766 35.631 79.4625C35.4661 79.6483 35.253 79.7789 34.9922 79.8556C34.7311 79.9317 34.4424 79.9469 34.1254 79.9006C33.6687 79.8342 33.3114 79.6656 33.053 79.3941C32.7954 79.1232 32.675 78.7957 32.6926 78.4122L33.3918 78.5137C33.388 78.7038 33.4618 78.8827 33.6135 79.0506C33.7653 79.2179 33.9833 79.3222 34.2675 79.3637C34.5331 79.4024 34.7601 79.365 34.9477 79.2524C35.1354 79.1391 35.2475 78.9587 35.2833 78.7114C35.3092 78.5338 35.2802 78.3818 35.1961 78.2553C35.1122 78.1282 35.0012 78.0252 34.8629 77.9457C34.7245 77.8656 34.5279 77.7688 34.273 77.6555C33.9643 77.5201 33.7184 77.395 33.5353 77.2803C33.3521 77.1649 33.2038 77.0074 33.09 76.8077C32.9761 76.6073 32.942 76.3537 32.9865 76.0455C33.0213 75.8071 33.1165 75.5922 33.2731 75.4008C33.4294 75.2087 33.6405 75.0657 33.9064 74.971C34.1727 74.8763 34.4731 74.8535 34.8087 74.9026C35.1302 74.9489 35.4099 75.0484 35.6472 75.1997Z" fill="#393939"/>
<path id="Vector_22" d="M31.2864 78.1826C30.9732 78.4936 30.6069 78.7016 30.1875 78.808C29.7684 78.9144 29.339 78.9047 28.8996 78.7796C28.3829 78.6332 27.9676 78.3802 27.6533 78.0209C27.3391 77.6616 27.1584 77.2277 27.1118 76.7191L27.8524 76.9298C27.9027 77.2532 28.0297 77.5269 28.2328 77.7514C28.436 77.976 28.7095 78.1377 29.0537 78.2351C29.3845 78.3298 29.7032 78.3367 30.0095 78.2572C30.3162 78.1778 30.5845 78.0175 30.8142 77.7763C31.0443 77.5352 31.2133 77.2242 31.3213 76.8428C31.4282 76.4662 31.4468 76.1152 31.3778 75.789C31.3089 75.4629 31.1647 75.1851 30.9456 74.9564C30.7266 74.727 30.4517 74.5653 30.1213 74.4713C29.777 74.3732 29.4597 74.3656 29.1696 74.4471C28.8796 74.5286 28.6284 74.6938 28.416 74.9425L27.6754 74.7318C27.9807 74.3282 28.3611 74.0574 28.8161 73.9199C29.2714 73.7824 29.757 73.7865 30.2737 73.9337C30.7132 74.0588 31.0836 74.2757 31.3851 74.5846C31.6869 74.8935 31.8897 75.2611 31.9939 75.6881C32.098 76.1152 32.0846 76.5602 31.9532 77.0224C31.8221 77.4854 31.5996 77.8724 31.2864 78.1826Z" fill="#393939"/>
<path id="Vector_23" d="M24.9398 71.99L25.2092 74.3083L25.9211 74.6192L26.7269 72.7715L27.316 73.0292L25.3458 77.549L23.8892 76.9119C23.5484 76.7627 23.2859 76.5782 23.1014 76.3584C22.9172 76.1394 22.8099 75.9045 22.7799 75.6543C22.7502 75.4049 22.7909 75.1527 22.902 74.897C23.0375 74.586 23.2469 74.3504 23.5298 74.1915C23.8122 74.0319 24.1499 73.9918 24.5421 74.0706L24.2344 71.6811L24.9398 71.99ZM25.7148 75.0925L24.8474 74.7132C24.528 74.5736 24.2541 74.548 24.0258 74.6358C23.7974 74.7235 23.6256 74.8997 23.5104 75.1637C23.3939 75.4311 23.3821 75.6737 23.4756 75.8893C23.5691 76.1048 23.7774 76.2838 24.1013 76.4255L24.9688 76.8048L25.7148 75.0925Z" fill="#393939"/>
<path id="Vector_24" d="M22.5542 71.0743C22.7649 71.4537 22.8636 71.8648 22.8512 72.3071C22.8388 72.7493 22.7077 73.1764 22.458 73.5875C22.2082 73.9986 21.8899 74.311 21.5032 74.5252C21.1165 74.7401 20.7068 74.8403 20.2736 74.8278C19.8403 74.8147 19.4285 74.6896 19.0384 74.4512C18.6441 74.2115 18.342 73.9012 18.1312 73.5219C17.9212 73.1418 17.8225 72.7327 17.8356 72.2933C17.8491 71.8545 17.9819 71.4274 18.234 71.0122C18.4862 70.5969 18.8038 70.2832 19.1874 70.0696C19.5706 69.8554 19.979 69.7552 20.4122 69.7684C20.8454 69.7808 21.259 69.9079 21.6532 70.1477C22.0437 70.3861 22.3438 70.6943 22.5542 71.0743ZM20.445 70.3474C20.1263 70.3405 19.8224 70.4234 19.5333 70.5948C19.2443 70.7669 18.9984 71.0198 18.7952 71.3542C18.5893 71.6928 18.4775 72.0293 18.4592 72.3631C18.441 72.6968 18.5068 73.0036 18.6569 73.2828C18.8069 73.5619 19.0308 73.7927 19.3285 73.9738C19.6261 74.1555 19.9335 74.2488 20.2498 74.2543C20.5664 74.2591 20.8689 74.1769 21.1566 74.0076C21.4442 73.8376 21.6908 73.584 21.8968 73.2455C22.0999 72.911 22.2113 72.5759 22.2306 72.2394C22.2503 71.9035 22.1841 71.5954 22.032 71.3148C21.8799 71.0343 21.657 70.8049 21.3632 70.6252C21.0696 70.4462 20.7633 70.3536 20.445 70.3474Z" fill="#393939"/>
<path id="Vector_25" d="M18.1454 68.4348L16.7884 67.37L17.1109 66.9575L18.9739 68.4196L15.9372 72.3016L15.4312 71.9043L18.1454 68.4348Z" fill="#393939"/>
<path id="Vector_26" d="M15.8365 66.4986L14.5734 65.3239L14.929 64.9404L16.6633 66.5532L13.3137 70.1678L12.8425 69.7297L15.8365 66.4986Z" fill="#393939"/>
<path id="Vector_27" d="M7.8331 63.7381C7.74928 63.3041 7.78998 62.8902 7.95486 62.4957C8.11973 62.1011 8.40084 61.7487 8.7982 61.4385C9.19589 61.1282 9.60497 60.9423 10.0254 60.8808C10.4459 60.8186 10.8539 60.8829 11.2496 61.0736C11.6455 61.2643 12.0084 61.5718 12.3382 61.9961L13.2798 63.2074L9.39492 66.2374L8.45327 65.0254C8.12353 64.6011 7.91657 64.172 7.8331 63.7381ZM10.6277 61.4827C10.1565 61.4253 9.6812 61.5836 9.20176 61.9581C8.71886 62.3347 8.44534 62.7617 8.38084 63.2392C8.31634 63.7174 8.47811 64.2052 8.8658 64.7041L9.41251 65.4075L12.4668 63.025L11.9201 62.3215C11.5297 61.8192 11.0988 61.5393 10.6277 61.4827Z" fill="#393939"/>
<path id="Vector_28" d="M9.62638 58.642C9.62638 59.076 9.51394 59.483 9.2887 59.8644C9.06347 60.2451 8.742 60.554 8.32429 60.7924C7.90693 61.0301 7.47716 61.149 7.03531 61.1483C6.59346 61.1476 6.18611 61.037 5.81359 60.8145C5.44107 60.5927 5.14168 60.2831 4.91575 59.8858C4.68776 59.4837 4.57359 59.0656 4.57324 58.6317C4.57324 58.1977 4.68534 57.7914 4.90989 57.4141C5.13443 57.0368 5.45728 56.7273 5.87878 56.4875C6.30062 56.247 6.73074 56.1268 7.16914 56.1261C7.60789 56.1261 8.01352 56.2367 8.38603 56.4585C8.7589 56.6803 9.05898 56.9919 9.28732 57.3941C9.51325 57.7914 9.62638 58.2074 9.62638 58.642ZM8.13424 56.9809C7.85864 56.8199 7.55304 56.7446 7.21709 56.7542C6.88147 56.7639 6.54345 56.8655 6.2037 57.059C5.85981 57.2552 5.59905 57.495 5.42141 57.7776C5.24377 58.0609 5.15271 58.3615 5.14858 58.6787C5.14444 58.9951 5.2286 59.3061 5.40106 59.6094C5.57318 59.9128 5.79669 60.1436 6.0709 60.3018C6.34512 60.4607 6.64934 60.5354 6.98288 60.5271C7.31677 60.5188 7.65548 60.4165 7.99937 60.2203C8.33912 60.0268 8.5992 59.7877 8.7789 59.503C8.95861 59.219 9.05001 58.917 9.05312 58.5978C9.05588 58.2793 8.97241 57.9697 8.80236 57.6705C8.63231 57.3713 8.40949 57.1412 8.13424 56.9809Z" fill="#393939"/>
<path id="Vector_29" d="M0.978516 50.509L6.09443 50.1828L6.33829 50.8621L2.99736 53.2854L7.12817 53.0595L7.37651 53.729L3.20397 56.7003L2.97183 56.0549L6.53593 53.6261L2.2061 53.9246L1.96189 53.2453L5.49392 50.7681L1.21306 51.1613L0.978516 50.509Z" fill="#393939"/>
<path id="Vector_30" d="M4.87757 44.4697L4.99346 45.1034L1.60389 48.3593L5.46014 47.6504L5.57604 48.2833L0.726404 49.1754L0.61051 48.5417L3.99284 45.2872L0.143827 45.9947L0.0275879 45.3611L4.87757 44.4697Z" fill="#393939"/>
<path id="Vector_31" d="M4.7309 35.9684C4.58189 36.2082 4.39632 36.3864 4.17385 36.5032C3.95103 36.6207 3.70647 36.6635 3.43985 36.6324L3.53194 35.9525C3.76373 35.9601 3.96896 35.8917 4.14763 35.7466C4.32665 35.6022 4.43737 35.3707 4.48048 35.0528C4.52153 34.7488 4.47807 34.4993 4.3501 34.3031C4.22248 34.1075 4.03933 33.9928 3.80133 33.961C3.61472 33.9355 3.45606 33.9666 3.32533 34.0536C3.19495 34.1407 3.08872 34.2568 3.00731 34.4026C2.92591 34.5491 2.83209 34.7481 2.72689 35.0003C2.59927 35.3112 2.48027 35.5586 2.36989 35.741C2.25986 35.9235 2.10534 36.0713 1.907 36.1854C1.70902 36.2987 1.45791 36.3346 1.15473 36.2938C0.888789 36.2572 0.662173 36.1577 0.475224 35.994C0.288275 35.8309 0.155135 35.6187 0.0764919 35.3582C-0.00249573 35.0977 -0.0200869 34.8082 0.0226837 34.4903C0.0847701 34.0322 0.249989 33.6729 0.517995 33.4117C0.786346 33.1505 1.11195 33.0268 1.49482 33.0406L1.39997 33.742C1.21026 33.7399 1.03262 33.8159 0.866713 33.9693C0.70115 34.1234 0.598707 34.3425 0.560076 34.6279C0.524204 34.8939 0.563525 35.1205 0.678385 35.3078C0.793589 35.4951 0.974675 35.6049 1.22199 35.6388C1.39928 35.663 1.5507 35.6319 1.67625 35.5469C1.8018 35.4612 1.9039 35.3493 1.9822 35.2097C2.0605 35.0708 2.15501 34.8725 2.26538 34.6161C2.39783 34.3059 2.52028 34.0585 2.63342 33.874C2.74621 33.6888 2.90211 33.5388 3.10079 33.4228C3.29946 33.3074 3.55264 33.27 3.86066 33.3122C4.09865 33.344 4.31389 33.438 4.50704 33.5927C4.69986 33.7475 4.84507 33.9576 4.94199 34.2229C5.03926 34.4883 5.06513 34.7895 5.0196 35.1261C4.9758 35.4488 4.87956 35.7293 4.7309 35.9684Z" fill="#393939"/>
<path id="Vector_32" d="M1.71468 31.6082C1.40183 31.2979 1.1904 30.9324 1.08037 30.5137C0.970335 30.0949 0.975853 29.6644 1.09623 29.2229C1.23834 28.7046 1.48703 28.2859 1.84265 27.968C2.19792 27.6502 2.62942 27.465 3.1368 27.4132L2.9333 28.1574C2.61114 28.2106 2.33899 28.3405 2.11652 28.5457C1.89439 28.7516 1.73607 29.0273 1.64156 29.3728C1.5505 29.7052 1.54636 30.0244 1.62845 30.3305C1.71089 30.6367 1.87335 30.9034 2.11617 31.1314C2.359 31.3594 2.67116 31.526 3.05264 31.631C3.42964 31.734 3.78078 31.7498 4.1057 31.6773C4.43061 31.6054 4.70655 31.4582 4.93282 31.2371C5.15944 31.0153 5.3181 30.7389 5.40916 30.4066C5.50367 30.0611 5.50885 29.7432 5.42434 29.453C5.34018 29.1635 5.17289 28.9133 4.92282 28.7033L5.12633 27.959C5.53196 28.261 5.80548 28.6397 5.94725 29.0944C6.08935 29.549 6.08901 30.0355 5.94725 30.5544C5.82652 30.9953 5.6137 31.3684 5.30776 31.6738C5.0025 31.9786 4.63688 32.1852 4.21193 32.2937C3.78664 32.4021 3.34238 32.3925 2.87915 32.2653C2.41591 32.1382 2.02787 31.9191 1.71468 31.6082Z" fill="#393939"/>
<path id="Vector_33" d="M7.82806 25.2145L5.51672 25.5075L5.21285 26.224L7.06578 27.0125L6.81467 27.6046L2.28271 25.6768L2.90427 24.2112C3.04948 23.8684 3.23091 23.6038 3.44856 23.4165C3.66586 23.23 3.89903 23.1201 4.14807 23.0876C4.39745 23.0551 4.64959 23.0938 4.90552 23.2023C5.21768 23.335 5.45464 23.5423 5.61641 23.8242C5.77852 24.1054 5.82198 24.4433 5.74748 24.8365L8.12918 24.5048L7.82806 25.2145ZM4.73823 26.0216L5.10833 25.1488C5.24458 24.8275 5.26769 24.5532 5.17766 24.3252C5.08729 24.0972 4.91035 23.9272 4.64579 23.8145C4.37709 23.7005 4.1353 23.6908 3.92076 23.7869C3.70622 23.8823 3.52996 24.093 3.39199 24.4185L3.02189 25.2912L4.73823 26.0216Z" fill="#393939"/>
<path id="Vector_34" d="M8.72002 22.8132C8.34336 23.0274 7.93394 23.1304 7.49209 23.1228C7.05024 23.1145 6.62288 22.9874 6.21035 22.7414C5.79748 22.4947 5.48222 22.1796 5.26457 21.794C5.04658 21.4091 4.94207 20.9994 4.95069 20.5654C4.95931 20.1315 5.08038 19.7176 5.31389 19.3244C5.55017 18.9271 5.85646 18.6217 6.23346 18.4068C6.61012 18.1926 7.01782 18.0896 7.45656 18.0986C7.89496 18.1076 8.32301 18.2368 8.73968 18.4848C9.15635 18.7336 9.47333 19.0487 9.69029 19.4308C9.90725 19.8129 10.0114 20.2206 10.0028 20.6546C9.99417 21.0885 9.87207 21.5045 9.63579 21.9018C9.40228 22.295 9.09702 22.5983 8.72002 22.8132ZM9.42504 20.6933C9.42849 20.374 9.34295 20.0707 9.16877 19.7825C8.99458 19.4951 8.73968 19.2512 8.40372 19.0508C8.06363 18.8476 7.72698 18.7391 7.39344 18.7239C7.05955 18.7087 6.7543 18.7778 6.47698 18.9312C6.19966 19.0839 5.97166 19.3106 5.79368 19.6105C5.61536 19.9104 5.52499 20.2192 5.52292 20.5364C5.52085 20.8536 5.60604 21.1555 5.77816 21.4416C5.95028 21.7284 6.20656 21.973 6.54631 22.1755C6.88226 22.3758 7.21788 22.4843 7.55349 22.5002C7.8891 22.5168 8.19642 22.447 8.47478 22.2922C8.75348 22.1368 8.98044 21.9115 9.15635 21.6157C9.33226 21.32 9.42194 21.0125 9.42504 20.6933Z" fill="#393939"/>
<path id="Vector_35" d="M11.3129 18.3701L12.3629 17.0006L12.7775 17.3198L11.336 19.2L7.43115 16.1962L7.82264 15.6856L11.3129 18.3701Z" fill="#393939"/>
<path id="Vector_36" d="M13.2229 16.038L14.3832 14.761L14.7699 15.1134L13.177 16.8665L9.53564 13.547L9.96852 13.0702L13.2229 16.038Z" fill="#393939"/>
<path id="Vector_37" d="M15.9006 7.99544C16.3327 7.907 16.7467 7.94362 17.1423 8.10531C17.5379 8.26631 17.8922 8.54478 18.2057 8.94003C18.5192 9.33528 18.7086 9.74297 18.7745 10.1631C18.8403 10.5839 18.78 10.9937 18.5937 11.3917C18.4075 11.7897 18.1039 12.1559 17.6838 12.4904L16.4835 13.446L13.4209 9.58404L14.6212 8.62909C15.0417 8.29464 15.468 8.0832 15.9006 7.99544ZM18.1795 10.7726C18.2319 10.2999 18.0691 9.8252 17.6914 9.3491C17.3106 8.86886 16.8812 8.59868 16.4038 8.53926C15.9264 8.47914 15.4404 8.64567 14.9465 9.03885L14.2494 9.59372L16.6573 12.63L17.3541 12.0751C17.8521 11.6791 18.127 11.2452 18.1795 10.7726Z" fill="#393939"/>
<path id="Vector_38" d="M21.0053 9.74435C20.5718 9.7485 20.1641 9.64001 19.7816 9.41751C19.3994 9.1957 19.0872 8.87715 18.8458 8.46117C18.604 8.04519 18.4812 7.61608 18.4774 7.17316C18.4736 6.73092 18.5805 6.32185 18.7985 5.94664C19.0162 5.57143 19.3225 5.26808 19.7174 5.03798C20.1161 4.80581 20.5325 4.68695 20.9657 4.68281C21.3992 4.67866 21.8056 4.78715 22.1846 5.00827C22.5637 5.22939 22.8752 5.54932 23.1194 5.96944C23.3632 6.38957 23.4874 6.81937 23.4922 7.25815C23.4971 7.69762 23.3905 8.10531 23.1725 8.48052C22.9549 8.85573 22.6465 9.15977 22.2474 9.39263C21.8528 9.62273 21.4386 9.73951 21.0053 9.74435ZM22.6489 8.23314C22.8065 7.95605 22.8786 7.64925 22.8659 7.31274C22.8528 6.97622 22.7482 6.63902 22.5516 6.30043C22.3526 5.95769 22.1108 5.69926 21.8263 5.52375C21.542 5.34893 21.2413 5.26048 20.925 5.2591C20.6083 5.25841 20.2993 5.34547 19.9982 5.52099C19.697 5.69719 19.4687 5.92314 19.3131 6.19885C19.1576 6.47525 19.0855 6.78067 19.0972 7.11511C19.1089 7.44955 19.2145 7.78745 19.4135 8.13018C19.6101 8.46877 19.8512 8.72651 20.1368 8.90341C20.4224 9.08099 20.7246 9.16944 21.0433 9.16944C21.3616 9.16944 21.6697 9.08238 21.9666 8.90894C22.264 8.73619 22.4913 8.51092 22.6489 8.23314Z" fill="#393939"/>
<path id="Vector_39" d="M29.0341 1.00194L29.4104 6.12291L28.7351 6.37374L26.2826 3.05212L26.5496 7.18704L25.8832 7.44202L22.8755 3.29259L23.5177 3.0535L25.9777 6.59969L25.637 2.26577L26.3123 2.01425L28.8206 5.52727L28.385 1.2431L29.0341 1.00194Z" fill="#393939"/>
<path id="Vector_40" d="M35.0943 4.84872L34.4631 4.97102L31.1784 1.60933L31.9252 5.46439L31.294 5.58739L30.3547 0.738674L30.9859 0.616368L34.2693 3.97115L33.5239 0.122997L34.1551 0L35.0943 4.84872Z" fill="#393939"/>
</g>
</g>
</svg>
