<svg width="200" height="40" viewBox="0 0 200 40" fill="none" xmlns="http://www.w3.org/2000/svg">
<path fill-rule="evenodd" clip-rule="evenodd" d="M8.43303 27.1968L15.4248 31.0656V38.0151L2.15322 30.6716L8.43303 27.1968ZM7.71325 18.2645V26.0021L1.43348 29.4769V14.7897L7.71325 18.2645ZM32.2868 22.1352L32.2855 22.1328V13.9987L38.5653 10.5239V17.8656H38.5641V26.0029L32.2868 29.4761V22.1352ZM15.4265 22.5308V29.4805L9.14627 26.0056V19.056L15.4265 22.5308ZM15.4265 13.9967V20.9448L8.78946 17.2724L8.78782 17.27L2.15445 13.5998L8.4314 10.1265L15.4265 13.9967ZM23.1393 17.4665L16.8595 20.9413V6.2543L23.1393 9.72893V17.4665ZM23.1393 19.0595V26.4012L23.138 26.401V34.5385L16.8608 38.0117V30.6708L16.8595 30.6685V22.5343L23.1393 19.0595ZM21.6186 1.23689L16.1409 4.26762L15.426 4.66322L15.4265 12.4076L8.42813 8.53562L0.714876 12.8032L0 13.1988V31.0664C5.38264 34.0435 10.764 37.0221 16.1459 40L16.8608 39.6046L24.574 35.3368V27.5924L31.5719 31.4646L32.2868 31.0692L35.687 29.1878L40 26.8012V17.8674L39.9983 17.865V8.93438L31.9287 4.46895L31.9271 4.46679L23.8541 0L21.6186 1.23689ZM31.5657 12.804L24.2155 8.73697L24.2143 8.7344L17.5805 5.06414L23.8574 1.59089L31.2109 5.65951L31.2114 5.65834L37.8455 9.32919L31.5657 12.804ZM30.8525 20.9448L24.5723 17.47V10.5203L30.8525 13.9952V20.9448ZM30.8508 22.53V29.4795L24.5723 26.0056V19.056L30.8508 22.53Z" fill="#251E1C"/>
<path d="M50.7648 16.92C51.2745 16.0057 51.9702 15.2904 52.8514 14.7742C53.7326 14.2582 54.7107 14 55.7859 14C57.0495 14 58.1523 14.3088 59.0945 14.9257C60.0365 15.5428 60.7239 16.4181 61.1561 17.5512H59.3439C59.0222 16.8443 58.5596 16.3002 57.9556 15.9187C57.3513 15.5373 56.6281 15.3464 55.7859 15.3464C54.9767 15.3464 54.2506 15.5373 53.6078 15.9187C52.9649 16.3002 52.4607 16.8417 52.0948 17.5428C51.7291 18.2441 51.5462 19.0659 51.5462 20.0084C51.5462 20.9398 51.7291 21.7561 52.0948 22.4572C52.4607 23.1585 52.9649 23.7 53.6078 24.0813C54.2506 24.4629 54.9767 24.6535 55.7859 24.6535C56.6281 24.6535 57.3513 24.4657 57.9556 24.0897C58.5596 23.714 59.0222 23.1725 59.3439 22.4656H61.1561C60.7239 23.5877 60.0365 24.4545 59.0945 25.0659C58.1523 25.6776 57.0495 25.9831 55.7859 25.9831C54.7107 25.9831 53.7326 25.728 52.8514 25.2174C51.9702 24.7069 51.2745 23.9972 50.7648 23.0883C50.2549 22.1795 50 21.1528 50 20.0084C50 18.864 50.2549 17.8347 50.7648 16.92Z" fill="#393939"/>
<path d="M67.374 25.2341C66.4871 24.7237 65.7861 24.0114 65.2707 23.0967C64.7553 22.1824 64.4976 21.1528 64.4976 20.0083C64.4976 18.8639 64.7553 17.8347 65.2707 16.92C65.7861 16.0057 66.4871 15.2933 67.374 14.7826C68.2605 14.2722 69.2415 14.0168 70.3168 14.0168C71.4029 14.0168 72.3893 14.2722 73.2763 14.7826C74.1628 15.2933 74.8611 16.0028 75.3711 16.9116C75.8808 17.8205 76.1359 18.8529 76.1359 20.0083C76.1359 21.1641 75.8808 22.1963 75.3711 23.1051C74.8611 24.0139 74.1628 24.7237 73.2763 25.2341C72.3893 25.7449 71.4029 26 70.3168 26C69.2415 26 68.2605 25.7449 67.374 25.2341ZM72.5031 24.0981C73.1515 23.7167 73.6611 23.1724 74.0327 22.4656C74.4039 21.7587 74.5896 20.9398 74.5896 20.0083C74.5896 19.0659 74.4039 18.2441 74.0327 17.5428C73.6611 16.8417 73.1542 16.3002 72.5114 15.9187C71.8685 15.5373 71.1369 15.3463 70.3168 15.3463C69.4964 15.3463 68.7649 15.5373 68.1221 15.9187C67.4792 16.3002 66.9721 16.8417 66.6008 17.5428C66.2293 18.2441 66.0438 19.0659 66.0438 20.0083C66.0438 20.9398 66.2293 21.7587 66.6008 22.4656C66.9721 23.1724 67.482 23.7167 68.1304 24.0981C68.7789 24.4797 69.5075 24.6703 70.3168 24.6703C71.1257 24.6703 71.8547 24.4797 72.5031 24.0981Z" fill="#393939"/>
<path d="M91.5486 14.2355V25.882H90.0356V17.1976L86.2116 25.882H85.1475L81.3068 17.1807V25.882H79.7939V14.2355H81.4233L85.6796 23.8624L89.9358 14.2355H91.5486Z" fill="#393939"/>
<path d="M102.53 20.0169C101.871 20.6622 100.865 20.9846 99.5124 20.9846H97.2845V25.8822H95.7715V14.1516H99.5124C100.82 14.1516 101.815 14.4713 102.497 15.1108C103.179 15.7505 103.519 16.5751 103.519 17.585C103.519 18.5611 103.189 19.3719 102.53 20.0169ZM101.375 19.167C101.774 18.7967 101.973 18.2694 101.973 17.585C101.973 16.1375 101.153 15.4139 99.5124 15.4139H97.2845V19.7224H99.5124C100.355 19.7224 100.975 19.5372 101.375 19.167Z" fill="#393939"/>
<path d="M113.911 23.2736H108.856L107.925 25.8823H106.329L110.519 14.219H112.265L116.438 25.8823H114.842L113.911 23.2736ZM113.478 22.0282L111.383 16.1039L109.288 22.0282H113.478Z" fill="#393939"/>
<path d="M129.04 25.8819H127.527L121.442 16.5411V25.8819H119.929V14.1344H121.442L127.527 23.4583V14.1344H129.04V25.8819Z" fill="#393939"/>
<path d="M141.393 14.1516L137.619 21.4558V25.8822H136.106V21.4558L132.315 14.1516H133.995L136.854 20.0927L139.714 14.1516H141.393Z" fill="#393939"/>
<path d="M152.266 24.6368H156.323V25.8822H150.753V14.1516H152.266V24.6368Z" fill="#393939"/>
<path d="M161.91 25.2341C161.023 24.7237 160.322 24.0114 159.806 23.0967C159.291 22.1824 159.033 21.1528 159.033 20.0083C159.033 18.8639 159.291 17.8347 159.806 16.92C160.322 16.0057 161.023 15.2933 161.91 14.7826C162.796 14.2722 163.777 14.0168 164.852 14.0168C165.938 14.0168 166.925 14.2722 167.812 14.7826C168.698 15.2933 169.397 16.0028 169.907 16.9116C170.416 17.8205 170.671 18.8529 170.671 20.0083C170.671 21.1641 170.416 22.1963 169.907 23.1051C169.397 24.0139 168.698 24.7237 167.812 25.2341C166.925 25.7449 165.938 26 164.852 26C163.777 26 162.796 25.7449 161.91 25.2341ZM167.039 24.0981C167.687 23.7167 168.197 23.1724 168.568 22.4656C168.939 21.7587 169.125 20.9398 169.125 20.0083C169.125 19.0659 168.939 18.2441 168.568 17.5428C168.197 16.8417 167.69 16.3002 167.047 15.9187C166.404 15.5373 165.672 15.3463 164.852 15.3463C164.032 15.3463 163.3 15.5373 162.658 15.9187C162.015 16.3002 161.508 16.8417 161.136 17.5428C160.765 18.2441 160.579 19.0659 160.579 20.0083C160.579 20.9398 160.765 21.7587 161.136 22.4656C161.508 23.1724 162.018 23.7167 162.666 24.0981C163.314 24.4797 164.043 24.6703 164.852 24.6703C165.661 24.6703 166.39 24.4797 167.039 24.0981Z" fill="#393939"/>
<path d="M183.108 17.5512C182.786 16.8669 182.321 16.3368 181.711 15.9607C181.102 15.5849 180.392 15.3969 179.583 15.3969C178.774 15.3969 178.045 15.5849 177.397 15.9607C176.749 16.3368 176.239 16.8753 175.867 17.5764C175.496 18.2778 175.31 19.0885 175.31 20.0083C175.31 20.9285 175.496 21.7364 175.867 22.4319C176.239 23.1278 176.749 23.6634 177.397 24.0392C178.045 24.4153 178.774 24.603 179.583 24.603C180.714 24.603 181.645 24.2609 182.376 23.5764C183.108 22.8921 183.535 21.9664 183.657 20.7994H179.035V19.5539H185.269V20.7321C185.181 21.6972 184.881 22.5808 184.372 23.3828C183.862 24.1852 183.191 24.8192 182.36 25.2847C181.529 25.7504 180.603 25.9831 179.583 25.9831C178.508 25.9831 177.527 25.728 176.64 25.2174C175.754 24.7068 175.053 23.9972 174.537 23.0882C174.022 22.1794 173.764 21.1528 173.764 20.0083C173.764 18.8639 174.022 17.8347 174.537 16.92C175.053 16.0057 175.754 15.2933 176.64 14.7826C177.527 14.2722 178.508 14.0168 179.583 14.0168C180.814 14.0168 181.903 14.3255 182.85 14.9424C183.798 15.5597 184.488 16.4293 184.92 17.5512H183.108Z" fill="#393939"/>
<path d="M191.238 25.2341C190.351 24.7237 189.65 24.0114 189.135 23.0967C188.619 22.1824 188.362 21.1528 188.362 20.0083C188.362 18.8639 188.619 17.8347 189.135 16.92C189.65 16.0057 190.351 15.2933 191.238 14.7826C192.125 14.2722 193.106 14.0168 194.181 14.0168C195.267 14.0168 196.254 14.2722 197.14 14.7826C198.027 15.2933 198.725 16.0028 199.235 16.9116C199.745 17.8205 200 18.8529 200 20.0083C200 21.1641 199.745 22.1963 199.235 23.1051C198.725 24.0139 198.027 24.7237 197.14 25.2341C196.254 25.7449 195.267 26 194.181 26C193.106 26 192.125 25.7449 191.238 25.2341ZM196.367 24.0981C197.016 23.7167 197.525 23.1724 197.897 22.4656C198.268 21.7587 198.454 20.9398 198.454 20.0083C198.454 19.0659 198.268 18.2441 197.897 17.5428C197.525 16.8417 197.018 16.3002 196.376 15.9187C195.733 15.5373 195.001 15.3463 194.181 15.3463C193.361 15.3463 192.629 15.5373 191.986 15.9187C191.343 16.3002 190.836 16.8417 190.465 17.5428C190.093 18.2441 189.908 19.0659 189.908 20.0083C189.908 20.9398 190.093 21.7587 190.465 22.4656C190.836 23.1724 191.346 23.7167 191.995 24.0981C192.643 24.4797 193.372 24.6703 194.181 24.6703C194.99 24.6703 195.719 24.4797 196.367 24.0981Z" fill="#393939"/>
</svg>
