<svg width="30" height="30" viewBox="0 0 30 30" fill="none" xmlns="http://www.w3.org/2000/svg">
<path d="M30 15C30 6.71573 23.2843 0 15 0C6.71573 0 0 6.71573 0 15C0 22.0347 4.84293 27.9373 11.3763 29.5583V19.5838H8.28321V15H11.3763V13.0249C11.3763 7.91936 13.6869 5.55293 18.6992 5.55293C19.6495 5.55293 21.2892 5.73927 21.96 5.9256V10.0808C21.606 10.0436 20.9911 10.0249 20.2271 10.0249C17.7675 10.0249 16.8172 10.9566 16.8172 13.3789V15H21.7168L20.8751 19.5838H16.8172V29.8901C24.2444 28.9931 30 22.6691 30 15Z" fill="white"/>
</svg>
