<svg width="30" height="30" viewBox="0 0 30 30" fill="none" xmlns="http://www.w3.org/2000/svg">
<path d="M30 15C30 6.71573 23.2843 0 15 0C6.71573 0 0 6.71573 0 15C0 22.0347 4.84293 27.9373 11.3763 29.5583V19.5838H8.28321V15H11.3763V13.0249C11.3763 7.91936 13.6869 5.55293 18.6992 5.55293C19.6495 5.55293 21.2892 5.73926 21.96 5.9256V10.0808C21.606 10.0436 20.9911 10.0249 20.2271 10.0249C17.7675 10.0249 16.8172 10.9566 16.8172 13.3789V15H21.7168L20.8751 19.5838H16.8172V29.8901C24.2444 28.9931 30 22.6691 30 15Z" fill="#0866FF"/>
<path d="M20.875 19.5838L21.7168 15H16.8172V13.379C16.8172 10.9566 17.7675 10.025 20.2271 10.025C20.9911 10.025 21.606 10.0436 21.96 10.0809V5.92564C21.2892 5.73931 19.6495 5.55298 18.6992 5.55298C13.6869 5.55298 11.3763 7.9194 11.3763 13.0249V15H8.2832V19.5838H11.3763V29.5583C12.5369 29.8463 13.7504 30 15 30C15.6152 30 16.2215 29.9621 16.8172 29.8902V19.5838H20.875Z" fill="white"/>
</svg>
