<svg width="30" height="30" viewBox="0 0 30 30" fill="none" xmlns="http://www.w3.org/2000/svg">
<path d="M15 2.70237C19.0052 2.70237 19.4796 2.7174 21.0613 2.78955C22.524 2.85628 23.3182 3.1004 23.8467 3.306C24.5471 3.57833 25.0467 3.90297 25.5716 4.42779C26.0964 4.95269 26.4217 5.45224 26.6934 6.15267C26.899 6.68113 27.1431 7.47534 27.2098 8.93804C27.282 10.5199 27.297 10.9941 27.297 14.9994C27.297 19.0046 27.282 19.479 27.2098 21.0607C27.1431 22.5234 26.899 23.3176 26.6934 23.8461C26.421 24.5465 26.0964 25.0461 25.5716 25.571C25.0467 26.0958 24.5471 26.421 23.8467 26.6928C23.3182 26.8984 22.524 27.1425 21.0613 27.2092C19.4796 27.2814 19.0052 27.2964 15 27.2964C10.9948 27.2964 10.5204 27.2814 8.93866 27.2092C7.47596 27.1425 6.68175 26.8984 6.15329 26.6928C5.45286 26.4204 4.95331 26.0958 4.42841 25.571C3.90359 25.0461 3.57833 24.5465 3.30662 23.8461C3.10094 23.3176 2.8569 22.5234 2.79017 21.0607C2.71802 19.479 2.70299 19.0046 2.70299 14.9994C2.70299 10.9941 2.71802 10.5199 2.79017 8.93804C2.8569 7.47534 3.10094 6.68113 3.30662 6.15267C3.57895 5.45224 3.90359 4.95269 4.42841 4.42779C4.95331 3.90297 5.45286 3.57771 6.15329 3.306C6.68175 3.1004 7.47596 2.85628 8.93866 2.78955C10.5204 2.71802 10.9948 2.70237 15 2.70237ZM15 0C10.9263 0 10.4152 0.0174368 8.81544 0.0901305C7.21858 0.162901 6.12865 0.416631 5.17449 0.787538C4.18793 1.17108 3.35165 1.68396 2.51777 2.51777C1.68396 3.35165 1.17053 4.18793 0.787538 5.17449C0.416631 6.12865 0.162901 7.2192 0.0901305 8.81544C0.0174368 10.4152 0 10.9263 0 15C0 19.0737 0.0174368 19.5848 0.0901305 21.1846C0.162901 22.7813 0.416631 23.8714 0.787538 24.8254C1.17108 25.8121 1.68396 26.6483 2.51777 27.4822C3.35165 28.316 4.18855 28.8288 5.17449 29.2125C6.12865 29.5834 7.2192 29.8371 8.81544 29.9099C10.4152 29.9826 10.9263 30 15 30C19.0737 30 19.5848 29.9826 21.1846 29.9099C22.7813 29.8371 23.8714 29.5834 24.8254 29.2125C25.8121 28.8288 26.6483 28.316 27.4822 27.4822C28.316 26.6483 28.8288 25.8114 29.2125 24.8254C29.5834 23.8714 29.8371 22.7808 29.9099 21.1846C29.9826 19.5848 30 19.0737 30 15C30 10.9263 29.9826 10.4152 29.9099 8.81544C29.8371 7.21858 29.5834 6.12865 29.2125 5.17449C28.8288 4.18793 28.316 3.35165 27.4822 2.51777C26.6483 1.68396 25.8114 1.17108 24.8254 0.787538C23.8714 0.416631 22.7808 0.162901 21.1846 0.0901305C19.5848 0.0174368 19.0737 0 15 0ZM15 7.2974C10.7458 7.2974 7.2974 10.7458 7.2974 15C7.2974 19.2541 10.7458 22.7026 15 22.7026C19.2541 22.7026 22.7026 19.2541 22.7026 15C22.7026 10.7458 19.2541 7.2974 15 7.2974ZM15 20.0002C12.2387 20.0002 9.99977 17.7619 9.99977 15C9.99977 12.2387 12.2387 9.99977 15 9.99977C17.7613 9.99977 20.0002 12.2381 20.0002 15C20.0002 17.7613 17.7613 20.0002 15 20.0002ZM23.0068 5.19316C22.0124 5.19316 21.2068 5.99876 21.2068 6.99314C21.2068 7.98752 22.0124 8.7932 23.0068 8.7932C24.0012 8.7932 24.8068 7.98752 24.8068 6.99314C24.8068 5.99876 24.0012 5.19316 23.0068 5.19316Z" fill="white"/>
</svg>
