<svg width="30" height="30" viewBox="0 0 30 30" fill="none" xmlns="http://www.w3.org/2000/svg">
<path d="M23.2369 0H6.76315C3.02796 0 0 3.02796 0 6.76315V23.2368C0 26.972 3.02796 30 6.76315 30H23.2369C26.972 30 30 26.972 30 23.2368V6.76315C30 3.02796 26.972 0 23.2369 0Z" fill="#06C755"/>
<path d="M24.9982 13.5865C24.9982 9.11098 20.5114 5.46973 14.9962 5.46973C9.48142 5.46973 4.99414 9.11098 4.99414 13.5865C4.99414 17.5989 8.55245 20.9592 13.359 21.5945C13.6847 21.6649 14.1281 21.8093 14.2402 22.0877C14.341 22.3405 14.3062 22.7367 14.2726 22.9921C14.2726 22.9921 14.1552 23.6979 14.1298 23.8484C14.0862 24.1011 13.9287 24.8373 14.9962 24.3876C16.0637 23.9377 20.7562 20.9958 22.8547 18.5806H22.8542C24.3037 16.9909 24.9982 15.3777 24.9982 13.5865Z" fill="white"/>
<path d="M21.6709 16.171H18.8609C18.7554 16.171 18.6699 16.0855 18.6699 15.98V11.6149C18.6699 11.5094 18.7554 11.424 18.8609 11.424H21.6709C21.776 11.424 21.8619 11.5099 21.8619 11.6149V12.3242C21.8619 12.4297 21.7764 12.5152 21.6709 12.5152H19.7612V13.2518H21.6709C21.776 13.2518 21.8619 13.3378 21.8619 13.4428V14.1521C21.8619 14.2576 21.7764 14.3431 21.6709 14.3431H19.7612V15.0797H21.6709C21.776 15.0797 21.8619 15.1657 21.8619 15.2707V15.98C21.8619 16.0855 21.7764 16.171 21.6709 16.171Z" fill="#06C755"/>
<path d="M11.2764 16.1711C11.3819 16.1711 11.4674 16.0856 11.4674 15.9802V15.2708C11.4674 15.1658 11.3814 15.0798 11.2764 15.0798H9.36666V11.615C9.36666 11.51 9.28072 11.4241 9.1757 11.4241H8.46635C8.36087 11.4241 8.27539 11.5096 8.27539 11.615V15.9802C8.27539 16.0856 8.36087 16.1711 8.46635 16.1711H11.2764Z" fill="#06C755"/>
<path d="M12.9687 11.4238H12.2593C12.1539 11.4238 12.0684 11.5093 12.0684 11.6148V15.9799C12.0684 16.0854 12.1539 16.1709 12.2593 16.1709H12.9687C13.0741 16.1709 13.1596 16.0854 13.1596 15.9799V11.6148C13.1596 11.5093 13.0741 11.4238 12.9687 11.4238Z" fill="#06C755"/>
<path d="M17.7977 11.4238H17.0884C16.9829 11.4238 16.8974 11.5093 16.8974 11.6148V14.2074L14.9002 11.5103C14.8956 11.5034 14.8904 11.4969 14.8849 11.4906C14.8845 11.4901 14.8841 11.4897 14.8836 11.4892C14.8799 11.4851 14.8761 11.4811 14.8721 11.4773C14.871 11.4762 14.8697 11.4751 14.8686 11.474C14.8652 11.471 14.8617 11.4681 14.8582 11.4653C14.8565 11.464 14.8548 11.4627 14.853 11.4614C14.8497 11.459 14.8464 11.4567 14.8429 11.4545C14.841 11.4532 14.839 11.4521 14.8371 11.4509C14.8336 11.4489 14.8301 11.4469 14.8265 11.4451C14.8245 11.4441 14.8225 11.4431 14.8204 11.4422C14.8168 11.4405 14.8131 11.4389 14.8093 11.4374C14.8072 11.4366 14.8051 11.4358 14.8031 11.4351C14.7992 11.4338 14.7954 11.4325 14.7915 11.4314C14.7892 11.4307 14.787 11.4302 14.7847 11.4296C14.7809 11.4287 14.7772 11.4279 14.7734 11.4272C14.7707 11.4267 14.7679 11.4263 14.7652 11.4259C14.7618 11.4254 14.7584 11.425 14.7549 11.4247C14.7515 11.4244 14.7482 11.4243 14.7447 11.4242C14.7426 11.4241 14.7404 11.4238 14.7382 11.4238H14.0328C13.9273 11.4238 13.8418 11.5093 13.8418 11.6148V15.9799C13.8418 16.0854 13.9273 16.1709 14.0328 16.1709H14.7421C14.8476 16.1709 14.9331 16.0854 14.9331 15.9799V13.3881L16.9327 16.0886C16.9465 16.1081 16.9633 16.124 16.982 16.1367C16.9827 16.1372 16.9835 16.1377 16.9842 16.1382C16.9881 16.1408 16.9922 16.1432 16.9962 16.1455C16.998 16.1466 16.9999 16.1476 17.0018 16.1486C17.0048 16.1502 17.0079 16.1516 17.011 16.153C17.0141 16.1545 17.0172 16.1558 17.0204 16.1571C17.0224 16.1579 17.0244 16.1586 17.0264 16.1593C17.0308 16.1608 17.0351 16.1623 17.0396 16.1635C17.0405 16.1638 17.0414 16.164 17.0423 16.1642C17.0583 16.1684 17.075 16.1709 17.0922 16.1709H17.7977C17.9032 16.1709 17.9887 16.0854 17.9887 15.9799V11.6148C17.9887 11.5093 17.9032 11.4238 17.7977 11.4238Z" fill="#06C755"/>
</svg>
