<svg width="30" height="26" viewBox="0 0 30 26" fill="none" xmlns="http://www.w3.org/2000/svg">
<path d="M28.2669 22.5005C29.114 22.5005 29.8032 23.1897 29.8032 24.0368C29.8032 24.8839 29.114 25.5731 28.2669 25.5731C27.4198 25.5731 26.7306 24.8839 26.7306 24.0368C26.7306 23.1897 27.4198 22.5005 28.2669 22.5005ZM28.2669 22.3031C27.3094 22.3031 26.5332 23.0793 26.5332 24.0368C26.5332 24.9943 27.3094 25.7706 28.2669 25.7706C29.2244 25.7706 30.0007 24.9943 30.0007 24.0368C30.0007 23.0793 29.2244 22.3031 28.2669 22.3031Z" fill="#0A66C1"/>
<path d="M28.5282 24.1549C28.7877 24.1575 29.0001 23.9492 29.0027 23.6898C29.0028 23.6792 29.0026 23.6686 29.0019 23.658C29.0019 23.3057 28.7894 23.1373 28.3532 23.1373H27.6484V24.9822H27.9135V24.178H28.2393L28.2467 24.1878L28.7522 24.9822H29.0356L28.4918 24.16L28.5282 24.1549ZM28.2217 23.9701H27.9143V23.3464H28.3039C28.5051 23.3464 28.7345 23.3793 28.7345 23.6428C28.7345 23.9458 28.5024 23.9701 28.2201 23.9701" fill="#0A66C1"/>
<path d="M21.6139 21.843H17.8553V15.9569C17.8553 14.5533 17.8302 12.7464 15.9004 12.7464C13.9428 12.7464 13.6433 14.2757 13.6433 15.8547V21.8426H9.88474V9.73838H13.493V11.3926H13.5435C14.2793 10.1346 15.6473 9.38324 17.1036 9.4373C20.9131 9.4373 21.6155 11.943 21.6155 15.2028L21.6139 21.843ZM5.64378 8.08382C4.43916 8.08404 3.46244 7.10767 3.46222 5.90305C3.46201 4.69843 4.43839 3.72172 5.64299 3.7215C6.84761 3.72129 7.82433 4.69765 7.82455 5.90227C7.82476 7.10689 6.8484 8.08361 5.64378 8.08382ZM7.52307 21.843H3.76057V9.73838H7.52307V21.843ZM23.4877 0.231101H1.87186C0.850261 0.219571 0.012474 1.0379 0 2.0595V23.765C0.0120438 24.7871 0.84976 25.6062 1.87186 25.5953H23.4877C24.5118 25.6082 25.3528 24.7891 25.367 23.765V2.05793C25.3524 1.03432 24.5113 0.216038 23.4877 0.229535" fill="#0A66C1"/>
</svg>
