<svg width="30" height="30" viewBox="0 0 30 30" fill="none" xmlns="http://www.w3.org/2000/svg">
<path d="M20.6238 4.18178C19.6237 3.52972 18.9019 2.48641 18.6767 1.27024C18.628 1.00745 18.6014 0.737016 18.6014 0.460327H15.4095L15.4044 13.2521C15.3507 14.6846 14.1718 15.8343 12.7265 15.8343C12.2773 15.8343 11.8543 15.7219 11.4819 15.526C10.6279 15.0765 10.0434 14.1814 10.0434 13.1512C10.0434 11.6717 11.2471 10.4681 12.7265 10.4681C13.0026 10.4681 13.2675 10.5136 13.5181 10.5921V7.33357C13.2588 7.29829 12.9953 7.2762 12.7265 7.2762C9.48698 7.2762 6.85156 9.91172 6.85156 13.1512C6.85156 15.1388 7.8446 16.8977 9.35961 17.9613C10.3139 18.6313 11.4746 19.0261 12.7265 19.0261C15.9659 19.0261 18.6014 16.3907 18.6014 13.1512V6.66468C19.8532 7.56322 21.3869 8.09271 23.042 8.09271V4.90088C22.1505 4.90088 21.3201 4.63584 20.6238 4.18178Z" fill="#393939"/>
<path d="M3.09986e-09 22.6292H5.14282L4.67062 24.1005L3.33645 24.1V29.5398H1.67396V24.1L0.00120132 24.103L3.09986e-09 22.6292Z" fill="#393939"/>
<path d="M13.5684 22.6292H18.8301L18.3579 24.1005L16.9074 24.1V29.5398H15.2423V24.1L13.5696 24.103L13.5684 22.6292Z" fill="#393939"/>
<path d="M5.45703 24.8273H7.10597L7.10414 29.5398H5.46686L5.45703 24.8273Z" fill="#393939"/>
<path d="M7.75977 22.6097H9.40682V25.8281L11.0391 24.2264L13.0052 24.2265L10.9405 26.2301L13.2531 29.5398H11.4384L9.89505 27.2446L9.40682 27.7192V29.5398H7.75977V22.6097Z" fill="#393939"/>
<path d="M24.5059 22.6097H26.1529V25.8281L27.7852 24.2264L29.7513 24.2265L27.6866 26.2301L29.9992 29.5398H28.1845L26.6411 27.2446L26.1529 27.7192V29.5398H24.5059V22.6097Z" fill="#393939"/>
<path d="M6.28114 24.2888C6.73951 24.2888 7.1111 23.9172 7.1111 23.4589C7.1111 23.0005 6.73951 22.6289 6.28114 22.6289C5.82276 22.6289 5.45117 23.0005 5.45117 23.4589C5.45117 23.9172 5.82276 24.2888 6.28114 24.2888Z" fill="#393939"/>
<path d="M21.0163 23.8978C19.4583 23.8978 18.1953 25.1608 18.1953 26.7188C18.1953 28.2768 19.4583 29.5398 21.0163 29.5398C22.5743 29.5398 23.8373 28.2768 23.8373 26.7188C23.8373 25.1608 22.5743 23.8978 21.0163 23.8978ZM21.0163 28.0902C20.2589 28.0902 19.6449 27.4762 19.6449 26.7188C19.6449 25.9614 20.2589 25.3474 21.0163 25.3474C21.7737 25.3474 22.3877 25.9614 22.3877 26.7188C22.3877 27.4762 21.7737 28.0902 21.0163 28.0902Z" fill="#393939"/>
</svg>
