<svg width="30" height="22" viewBox="0 0 30 22" fill="none" xmlns="http://www.w3.org/2000/svg">
<path d="M29.3731 3.77919C29.0281 2.48844 28.0116 1.4719 26.7208 1.12688C24.3813 0.5 15 0.5 15 0.5C15 0.5 5.61874 0.5 3.27919 1.12688C1.98844 1.4719 0.971899 2.48844 0.62688 3.77919C0 6.11873 0 11 0 11C0 11 0 15.8813 0.62688 18.2208C0.971899 19.5116 1.98844 20.5281 3.27919 20.8731C5.61874 21.5 15 21.5 15 21.5C15 21.5 24.3813 21.5 26.7208 20.8731C28.0116 20.5281 29.0281 19.5116 29.3731 18.2208C30 15.8813 30 11 30 11C30 11 30 6.11873 29.3731 3.77919Z" fill="#FF0000"/>
<path d="M12 15.5L19.7939 11.0001L12 6.5V15.5Z" fill="white"/>
</svg>
